<?xml version="1.0" standalone="no"?>
<!DOCTYPE svg PUBLIC "-//W3C//DTD SVG 20010904//EN"
 "http://www.w3.org/TR/2001/REC-SVG-20010904/DTD/svg10.dtd">
<svg version="1.0" xmlns="http://www.w3.org/2000/svg"
 width="512.000000pt" height="512.000000pt" viewBox="0 0 512.000000 512.000000"
 preserveAspectRatio="xMidYMid meet">
<metadata>
Created by potrace 1.11, written by Peter Selinger 2001-2013
</metadata>
<g transform="translate(0.000000,512.000000) scale(0.100000,-0.100000)"
fill="#000000" stroke="none">
<path d="M1465 4191 c-22 -10 -54 -34 -72 -52 -67 -71 -62 45 -60 -1590 2
-1360 3 -1487 19 -1514 24 -45 68 -85 113 -106 38 -17 95 -18 1085 -19 l1046
0 51 25 c51 26 88 65 111 119 10 22 13 349 13 1508 l0 1480 -22 42 c-28 55
-46 74 -94 100 l-40 21 -1055 2 c-1011 3 -1057 2 -1095 -16z m2178 -60 c21
-13 46 -40 56 -60 18 -34 19 -101 19 -1506 0 -1386 -1 -1472 -18 -1511 -11
-26 -32 -50 -56 -65 l-39 -24 -775 -1 c-534 0 -777 3 -782 10 -5 7 -8 8 -8 1
0 -7 -90 -10 -268 -10 -247 1 -271 2 -301 20 -45 26 -72 64 -80 111 -3 22 -6
692 -6 1489 l1 1450 24 42 c22 40 59 66 105 75 11 2 486 3 1055 3 l1035 -1 38
-23z"/>
<path d="M1674 4001 c-5 -3 -17 -24 -26 -46 -33 -82 -108 -281 -108 -289 0 -4
10 -6 22 -4 16 2 28 17 42 53 l21 50 70 0 69 0 21 -52 c16 -42 24 -53 42 -53
13 0 23 3 23 7 0 12 -123 317 -132 327 -10 12 -33 16 -44 7z m50 -123 c14 -37
21 -70 16 -73 -17 -10 -100 -2 -100 10 0 7 7 30 16 51 9 22 20 50 25 63 5 13
11 22 13 20 3 -2 16 -34 30 -71z"/>
<path d="M2525 3228 c-11 -6 -22 -14 -25 -17 -3 -3 -43 -35 -90 -71 -120 -91
-142 -110 -260 -230 -199 -201 -300 -386 -302 -550 -1 -60 16 -141 34 -165 88
-118 183 -167 325 -167 74 0 87 3 147 35 47 24 66 31 66 21 0 -8 -16 -53 -35
-101 -25 -61 -32 -90 -25 -99 13 -15 358 -17 377 -2 9 7 3 28 -26 81 -37 71
-64 137 -58 144 2 1 18 -8 37 -22 126 -93 355 -73 475 43 80 77 110 206 78
332 -56 223 -289 501 -611 729 -79 56 -78 55 -107 39z"/>
<path d="M1592 1692 c-9 -6 -12 -33 -10 -98 3 -78 5 -89 22 -92 33 -7 35 13
27 181 -1 18 -18 22 -39 9z"/>
<path d="M3310 1430 c0 -5 118 -299 129 -320 5 -8 19 -16 33 -18 23 -3 28 5
73 125 27 70 51 133 55 138 9 13 20 57 17 70 -1 5 -10 10 -19 10 -12 1 -22
-14 -35 -49 l-18 -51 -74 0 -74 0 -19 50 c-15 41 -23 50 -43 50 -14 0 -25 -2
-25 -5z m214 -141 c2 -2 -9 -38 -25 -79 -15 -41 -29 -72 -30 -67 -1 4 -2 10
-3 15 -1 4 -10 25 -20 47 -9 22 -20 51 -22 65 -5 24 -4 25 46 24 28 -1 52 -3
54 -5z"/>
<path d="M1593 1328 c-14 -18 -7 -81 12 -118 30 -58 96 -82 222 -82 235 -1
301 3 306 15 14 37 -6 40 -201 38 -251 -3 -292 13 -292 113 0 22 -6 36 -16 40
-21 8 -20 8 -31 -6z"/>
</g>
</svg>
